<svg xmlns="http://www.w3.org/2000/svg" width="256" height="256" viewBox="0 0 24 24" fill="#000000"><g fill="none"><path fill="#000000" d="M12 4a8 8 0 1 0 0 16a8 8 0 0 0 0-16m0 14.584a6.584 6.584 0 1 1 0-13.168a6.584 6.584 0 0 1 0 13.168"/><path fill="#000000" d="M11.956 7.6c-2.42.024-4.382 2.03-4.355 4.45a4.4 4.4 0 0 0 .38 1.74c.035.08.14.098.2.035l.97-1.001a.27.27 0 0 0 .072-.247a2.836 2.836 0 0 1 3.248-3.375a.32.32 0 0 0 .278-.09l.965-.995a.115.115 0 0 0-.038-.186a4.4 4.4 0 0 0-1.72-.33"/><path fill="#000000" d="M12.044 16.405c2.42-.024 4.382-2.03 4.355-4.45a4.4 4.4 0 0 0-.38-1.74a.124.124 0 0 0-.201-.035l-.97 1.002a.27.27 0 0 0-.071.246q.058.281.059.577a2.836 2.836 0 0 1-3.307 2.798a.32.32 0 0 0-.279.09l-.964.995a.115.115 0 0 0 .038.187c.53.218 1.11.336 1.72.33"/><path fill="#000000" d="m9.733 12.87l-1.847 1.848a.96.96 0 1 0 1.357 1.357l1.848-1.848a.96.96 0 1 0-1.358-1.357"/><path fill="#000000" d="m14.716 7.899l-1.848 1.847a.96.96 0 1 0 1.358 1.358l1.847-1.848A.96.96 0 1 0 14.716 7.9"/><defs><linearGradient id="tokenBrandedEtherlink0" x1="4" x2="26.335" y1="12" y2="12" gradientUnits="userSpaceOnUse"><stop stop-color="#38FF9C"/><stop offset="1" stop-color="#171717"/></linearGradient><linearGradient id="tokenBrandedEtherlink1" x1="7.601" x2="16.003" y1="10.732" y2="10.732" gradientUnits="userSpaceOnUse"><stop stop-color="#38FF9C"/><stop offset="1" stop-color="#171717"/></linearGradient><linearGradient id="tokenBrandedEtherlink2" x1="10.253" x2="18.61" y1="13.274" y2="13.274" gradientUnits="userSpaceOnUse"><stop stop-color="#38FF9C"/><stop offset="1" stop-color="#171717"/></linearGradient><linearGradient id="tokenBrandedEtherlink3" x1="7.605" x2="13.942" y1="14.473" y2="14.473" gradientUnits="userSpaceOnUse"><stop stop-color="#38FF9C"/><stop offset="1" stop-color="#171717"/></linearGradient><linearGradient id="tokenBrandedEtherlink4" x1="12.587" x2="18.434" y1="9.501" y2="9.501" gradientUnits="userSpaceOnUse"><stop stop-color="#38FF9C"/><stop offset="1" stop-color="#171717"/></linearGradient></defs></g></svg>